<svg xmlns="http://www.w3.org/2000/svg" viewBox="0 0 400 400" fill="none" shape-rendering="auto"><metadata xmlns:rdf="http://www.w3.org/1999/02/22-rdf-syntax-ns#" xmlns:xsi="http://www.w3.org/2001/XMLSchema-instance" xmlns:dc="http://purl.org/dc/elements/1.1/" xmlns:dcterms="http://purl.org/dc/terms/"><rdf:RDF><rdf:Description><dc:title>Adventurer Neutral</dc:title><dc:creator>Lisa Wischofsky</dc:creator><dc:source xsi:type="dcterms:URI">https://www.figma.com/community/file/1184595184137881796</dc:source><dcterms:license xsi:type="dcterms:URI">https://creativecommons.org/licenses/by/4.0/</dcterms:license><dc:rights>Remix of „Adventurer Neutral” (https://www.figma.com/community/file/1184595184137881796) by „Lisa Wischofsky”, licensed under „CC BY 4.0” (https://creativecommons.org/licenses/by/4.0/)</dc:rights></rdf:Description></rdf:RDF></metadata><mask id="viewboxMask"><rect width="400" height="400" rx="0" ry="0" x="0" y="0" fill="#fff" /></mask><g mask="url(#viewboxMask)"><rect fill="#ecad80" width="400" height="400" x="0" y="0" /><g transform="translate(-279 -322)"><path fill-rule="evenodd" clip-rule="evenodd" d="M612.99 456.04a65.1 65.1 0 0 0-38.46-29.54 66.07 66.07 0 0 0-39.02 1.1 65.93 65.93 0 0 0-36.82 32.08c-3.28 6.32-5.17 13.09-6.5 20.06-4.4.35-8.76.83-13.04 1.93.19.5.3 1.03.4 1.54.27 1.36.52 2.6 2.24 2.92 2.35.22 4.76 0 7.15-.22.92-.08 1.84-.16 2.75-.22-.56 12.87 2.24 25.63 8.92 36.7a65.2 65.2 0 0 0 40.45 30.25 65.99 65.99 0 0 0 37-1.54 65.75 65.75 0 0 0 34.03-27A65.76 65.76 0 0 0 622.15 490c.06-3.79-.4-7.45-.86-11.15l-.35-2.92c.94-.1 1.9-.19 2.86-.27 2.31-.2 4.64-.4 6.85-.98 1.2-.46 1.44-1.64 1.68-2.8.1-.48.2-.95.36-1.37-4.4-1.13-8.7-.78-13.15-.28-.5-1.18-1-2.35-1.47-3.53-1.5-3.64-2.98-7.25-5.08-10.67Zm.6 14.63c-4.83-13.64-13.96-25.42-26.55-32.68-13.32-7.97-29.57-10.1-44.6-6.46a59.5 59.5 0 0 0-35.54 25.37c-4.25 6.8-7.73 14.51-8.83 22.5a439.7 439.7 0 0 1 17.89-1.48c4.84-.34 9.69-.67 14.53-1.14 3.63-.32 7.27-.51 10.91-.7 4.86-.25 9.72-.5 14.54-1.08 16.39-1.12 32.79-2.4 49.17-3.67l8.47-.66Zm-200.21-17.1c11.97 6.5 20.98 17.4 25.57 30.16 2.69.16 5.36.38 8.03.75l-.1.7c-.16 1.02-.31 2.03-.6 3.05-1.04.76-2.47 1.03-3.83 1.29-.57.1-1.13.21-1.65.35 1.33 8.86 1.68 17.54-.78 26.25a54.8 54.8 0 0 1-59.8 40.22 54.77 54.77 0 0 1-39.64-24.94c-6.25-9.68-8.98-21.04-8.76-32.5-2.42-.02-4.82-.1-7.23-.28.08-.37.11-.82.15-1.3.1-1.25.2-2.69 1.15-3.27 1.54-.49 3.19-.68 4.81-.88a72.5 72.5 0 0 0 1.82-.23c1.4-6.54 3.35-12.87 6.78-18.66a55.05 55.05 0 0 1 74.08-20.7Zm19.77 30.84c-7.08-18.8-25.97-32.07-46.15-31.85-18.18-.19-35.6 10.43-43.83 26.64-2.2 4.2-3.57 8.69-4.72 13.28 7-.47 14-1.08 20.99-1.7 6.19-.54 12.38-1.08 18.58-1.52 3.77-.09 7.52-.47 11.26-.85 3.9-.4 7.78-.8 11.7-.86l6.3-.46c8.65-.6 17.33-1.22 25.87-2.67Z" fill="#000"/><path d="M615.13 476.4c1.79 9.43 1.83 19.44-.85 28.71a59.84 59.84 0 0 1-26.86 35.35c-11.86 6.95-25.9 9.98-39.53 7.74a59.74 59.74 0 0 1-40.06-25.03c-7.65-11.07-11.16-24.46-10.6-37.86 2.78-.26 5.55-.53 8.32-.81.58 6.88 2.87 13.16 8.1 17.84 9.27 8.8 25.13 8.57 33.96-.73 5.71-5.52 7.56-12.65 7.15-20.42 4.5-.5 8.95-1.1 13.47-1.39 15.64-.93 31.25-2.54 46.9-3.4ZM430.93 490.81c1.23-.4 2.51-.66 3.76-.97 3.28 11.9 1.31 24.64-4.45 35.44a49.5 49.5 0 0 1-33.98 24.89c-17.42 3.66-36.18-3.36-47.37-17.1-8.08-9.7-11.83-22.11-11.18-34.67 16.43-1.6 32.94-2.6 49.35-4.39.17 5.54 1.15 10.77 4.71 15.18a22.27 22.27 0 0 0 23.42 7.93c7.1-2.26 13-7.85 15.04-15.1 1.18-3.81.53-7.35.7-11.2Z" fill="#fff"/></g><g transform="translate(-279 -322)"><path d="M606.99 397.59c1.52-.4 3.26.6 4.74.97-.11 1.2-.17 2.45-.47 3.61-1.58 1.5-3.57 2.6-5.39 3.78-22.77 14.6-46.18 28.4-70.32 40.63-11.53 5.73-23.34 11.3-35.55 15.44-6.86 2.19-13.72 4.28-21 3.44-3.32-.31-6.17-3.02-6.24-6.43-.04-4.22 3-8.6 5.08-12.15 1.28-2.68 4.5-3.04 7-4.12 37.23-13.75 74.43-27.65 111.66-41.45 3.48-1.23 6.9-2.81 10.5-3.72ZM338.99 432.64c29.88 5.94 60.13 12.03 90.02 18.02 2.27.32 4.6.07 6.85.45 2.45 2.3 3.64 6.2 4.54 9.37 1.17 4.09-.15 8.77-3.9 11-4 2.63-9.92 2.17-14.5 1.9-8.75-1-17.42-3.8-25.69-6.74-19.61-7.16-38.69-16.93-56.97-26.97-1.67-.96-3.68-1.94-4.79-3.55-.38-2.88 1.85-4.16 4.44-3.48Z" fill="#000"/></g><g transform="translate(-279 -322)"><path d="M526 559.6c18 0 37.23 2.15 54 9.1-52.21 7.16-107.16 15.06-158.99 22.19 8.03-7 17.68-12.33 27.44-16.48 12.23-5.1 26.26-9.18 39.6-7.43.97.15 1.85.04 2.62-.34 10.24-5.9 23.77-6.7 35.33-7.05Z" fill="#D31E1E"/><path d="M579.99 568.69c2.42 1 1.92 3.4 1.38 5.45-6.78 13.35-16.08 25.18-28.35 33.9-17.2 12.5-38.88 18.4-60.02 17.58-26.81-.96-53.07-12.04-73.44-29.31-.4-2.42-.5-3.7 1.45-5.42 51.83-7.13 106.78-15.03 158.98-22.2Z" fill="#000"/><path d="M581.37 574.14c-1.1 4.61-1.85 9.2-3.65 13.62-5.36 13.94-16.05 25.4-28.38 33.56-13.59 8.87-29.26 14.15-45.36 15.89-19.66 2.09-40.79-1.1-58-11.18-11.77-6.82-21.38-17-26.42-29.72 20.37 17.27 46.63 28.35 73.44 29.31 21.14.82 42.83-5.1 60.02-17.58 12.27-8.72 21.57-20.55 28.35-33.9Z" fill="#D31E1E"/><path d="M573.86 575.51a83.4 83.4 0 0 1-36.37 35 89.24 89.24 0 0 1-40.5 9.18c-24.7.18-49-9.01-68.57-23.87 47.93-6.6 97.73-13.8 145.44-20.31Z" fill="#fff"/></g><g transform="translate(-279 -322)"></g></g></svg>