<svg xmlns="http://www.w3.org/2000/svg" viewBox="0 0 400 400" fill="none" shape-rendering="auto"><metadata xmlns:rdf="http://www.w3.org/1999/02/22-rdf-syntax-ns#" xmlns:xsi="http://www.w3.org/2001/XMLSchema-instance" xmlns:dc="http://purl.org/dc/elements/1.1/" xmlns:dcterms="http://purl.org/dc/terms/"><rdf:RDF><rdf:Description><dc:title>Adventurer Neutral</dc:title><dc:creator>Lisa Wischofsky</dc:creator><dc:source xsi:type="dcterms:URI">https://www.figma.com/community/file/1184595184137881796</dc:source><dcterms:license xsi:type="dcterms:URI">https://creativecommons.org/licenses/by/4.0/</dcterms:license><dc:rights>Remix of „Adventurer Neutral” (https://www.figma.com/community/file/1184595184137881796) by „Lisa Wischofsky”, licensed under „CC BY 4.0” (https://creativecommons.org/licenses/by/4.0/)</dc:rights></rdf:Description></rdf:RDF></metadata><mask id="viewboxMask"><rect width="400" height="400" rx="0" ry="0" x="0" y="0" fill="#fff" /></mask><g mask="url(#viewboxMask)"><rect fill="#b6e3f4" width="400" height="400" x="0" y="0" /><g transform="translate(-279 -322)"><path d="M559.01 424.1a65.32 65.32 0 0 1 43.93 18.98c5.76 5.61 9.95 12.31 13.6 19.43 7.87-5.09 15.8-10.08 23.76-15.03a50.52 50.52 0 0 1 3.56 3.46c-3.17 3.52-7.07 5.39-10.96 7.93-4.77 3.03-9.55 6.03-14.3 9.08 3.17 10 4.53 20.39 2.8 30.81a64.8 64.8 0 0 1-20.75 38.93A64.57 64.57 0 0 1 558 554.53a64.54 64.54 0 0 1-36.9-10.63 65.67 65.67 0 0 1-26.4-34.58c-4.57-14.5-4.06-30.74 1.8-44.81a65.1 65.1 0 0 1 28.11-31.9c10.31-6.05 22.51-8.86 34.4-8.5Z" fill="#000"/><path d="M549.27 430.26c14.65-1.77 29.27 1.62 41.4 10.04a59.45 59.45 0 0 1 20.39 73.64c-6.12 13.64-17.67 24.9-31.58 30.43a58.17 58.17 0 0 1-32.48 3.67 59.6 59.6 0 0 1-40.35-26.68 61.43 61.43 0 0 1-9.37-29.31 60.38 60.38 0 0 1 13.41-40.36 59.47 59.47 0 0 1 38.58-21.43Z" fill="#fff"/><path d="M414.05 453.95a55.06 55.06 0 0 1 23.87 27.2c3.5 8.51 4.54 17.78 3.61 26.9a54.83 54.83 0 0 1-27.1 41.38c-16.49 9.64-37.66 9.77-54.3.41a55 55 0 0 1-27.4-38.84c-1.8-8.9-.64-17.67 1.9-26.3-5.83-3.62-12.14-6.61-17.75-10.54-1.95-1.1-1.44-4.12.68-4.64 1.65-.48 3.18.6 4.6 1.28 4.83 2.83 9.64 5.66 14.48 8.47 6.58-14.13 18.65-25.2 33.6-29.87a55.21 55.21 0 0 1 43.81 4.55Z" fill="#000"/><path d="M378.27 453.29a49.32 49.32 0 0 1 42.11 12.35 50.02 50.02 0 0 1 15.93 36.37 51.36 51.36 0 0 1-6.07 23.26 49.5 49.5 0 0 1-33.98 24.9c-8.07 1.72-16.23 1.1-24.08-1.36-19.1-5.88-33.31-23.78-34.38-43.79-.98-12.79 3.48-25.72 11.85-35.4a49.5 49.5 0 0 1 28.62-16.33Z" fill="#fff"/><path d="M527.27 466.19c7.37-.9 15.21 1.78 20.25 7.3a24.2 24.2 0 0 1 6.4 15.46 23.88 23.88 0 0 1-8.72 19.24c-6.96 5.83-17.24 6.92-25.36 2.96-8.64-4.1-14.23-13.6-13.38-23.18.7-11.14 9.74-20.51 20.81-21.78ZM358.54 480.84c11.4-3.87 24.34 3 27.54 14.6 3.77 11.68-4.02 24.85-16.03 27.31-10.63 2.65-22.19-3.54-25.66-13.94-3.92-11.13 2.75-24.59 14.15-27.97Z" fill="#000"/></g><g transform="translate(-279 -322)"><path d="M456.01 380.37c2.26-.07 2.85 1.7 2.65 3.64-.5 4.68-.77 9.78-2.32 14.23-1.33.39-2.66.58-4.03.82-1.12-4.8 0-10.22.7-15.09.37-1.71.78-3.82 3-3.6ZM476.79 386.65c.03 3.21-.36 6.36-.67 9.55 41.69.52 83.32.38 125 .75 2.14.04 3.97.86 5.9 1.64-.6 1.48-.22 3.83-2.24 4.1-8.05 1.3-16.58.5-24.74.87-17.35.62-34.7 1-52.06 1.53-17.03.2-34 1.25-51.05 1.42-3.3.39-6.05-2.72-7.2-5.47.02-4.5 1.02-9.15 2.06-13.5 1.28-2.48 2.83-1.67 5-.9ZM439.84 392.18c-.1 4.87-.05 10.81-2.28 15.24-3.22 1.5-7.12 1.79-10.59 2.47-25.65 4.69-51.32 9.34-76.96 14.08-4.24.69-8.7 2.15-13 2.04-2.62-.48-3.32-3.75-.86-5 3.2-1.42 6.95-1.75 10.33-2.59 29.1-6.7 58.15-13.6 87.24-20.32.4-1.91.8-3.81 1.27-5.7 1.61-.21 3.23-.24 4.85-.23Z" fill="#000"/></g><g transform="translate(-279 -322)"><path d="M516.47 555.6c6.02 4.43 11.7 10 15.3 16.62 2.64 4.83 3.27 11.66-.42 16.13-4.14 5.37-11.5 7.58-17.88 8.76-15.67 2.47-31.9.95-47.46-1.6-5.74-1.11-10.18 1.63-16 2.55-8.7 1.6-18.36 2.92-27.06 1-5.13-1.02-10.28-3.2-13.34-7.65-2.78-3.87-2.64-9.34-1.12-13.67a37.3 37.3 0 0 1 7.04-11.24c1.33-1.74 3.08-1 4.97-1.12.3 1.84 1.06 3.23-.36 4.82-2.61 3.34-5.24 6.37-6.44 10.55-1.12 3.27-.33 6.93 2.4 9.14 3.03 2.37 7.16 3.47 10.93 3.87 7.78.5 15.57.14 23.16-1.73 5.6-1.06 9.96-3.57 15.81-2.5 12.03 1.92 23.78 3.44 36 2.8 6.92-.23 13.96-1.07 20.27-4.11 3.23-1.78 6.04-4.15 5.68-8.22-.27-6.05-6.07-11.79-10.25-15.7-2.5-2.65-6.66-4.09-6.02-8.36 1.8-.9 2.95-1.8 4.8-.34Z" fill="#000"/></g><g transform="translate(-279 -322)"></g></g></svg>